<svg width="22" height="13" viewBox="0 0 22 13" fill="none" xmlns="http://www.w3.org/2000/svg">
<path d="M11.6482 4.00207C10.6982 1.31207 7.89823 -0.497926 4.76823 0.122074C2.47823 0.582074 0.618231 2.41207 0.138231 4.70207C-0.681769 8.57207 2.25823 12.0021 5.99823 12.0021C8.60823 12.0021 10.8282 10.3321 11.6482 8.00207H15.9982V10.0021C15.9982 11.1021 16.8982 12.0021 17.9982 12.0021C19.0982 12.0021 19.9982 11.1021 19.9982 10.0021V8.00207C21.0982 8.00207 21.9982 7.10207 21.9982 6.00207C21.9982 4.90207 21.0982 4.00207 19.9982 4.00207H11.6482ZM5.99823 8.00207C4.89823 8.00207 3.99823 7.10207 3.99823 6.00207C3.99823 4.90207 4.89823 4.00207 5.99823 4.00207C7.09823 4.00207 7.99823 4.90207 7.99823 6.00207C7.99823 7.10207 7.09823 8.00207 5.99823 8.00207Z" fill="#5F5F5F"/>
</svg>
