<svg width="52" height="46" viewBox="0 0 52 46" fill="none" xmlns="http://www.w3.org/2000/svg">
<path d="M29.1503 0.499997C16.4253 0.149997 6.00032 10.375 6.00032 23H1.52532C0.40032 23 -0.14968 24.35 0.65032 25.125L7.62532 32.125C8.12532 32.625 8.90032 32.625 9.40032 32.125L16.3753 25.125C17.1503 24.35 16.6003 23 15.4753 23H11.0003C11.0003 13.25 18.9503 5.375 28.7503 5.5C38.0503 5.625 45.8753 13.45 46.0003 22.75C46.1253 32.525 38.2503 40.5 28.5003 40.5C24.4753 40.5 20.7503 39.125 17.8003 36.8C16.8003 36.025 15.4003 36.1 14.5003 37C13.4503 38.05 13.5253 39.825 14.7003 40.725C18.5003 43.725 23.2753 45.5 28.5003 45.5C41.1253 45.5 51.3503 35.075 51.0003 22.35C50.6753 10.625 40.8753 0.824997 29.1503 0.499997ZM27.8753 13C26.8503 13 26.0003 13.85 26.0003 14.875V24.075C26.0003 24.95 26.4753 25.775 27.2253 26.225L35.0253 30.85C35.9253 31.375 37.0753 31.075 37.6003 30.2C38.1253 29.3 37.8253 28.15 36.9503 27.625L29.7503 23.35V14.85C29.7503 13.85 28.9003 13 27.8753 13Z" fill="white"/>
</svg>
