<svg width="18" height="18" viewBox="0 0 18 18" fill="none" xmlns="http://www.w3.org/2000/svg">
<path fill-rule="evenodd" clip-rule="evenodd" d="M16 7.62939e-05H1.99C0.886 7.62939e-05 0.01 0.895076 0.01 2.00008L0 16.0001C0 17.1041 0.886 18.0001 1.99 18.0001H16C17.105 18.0001 18 17.1041 18 16.0001V2.00008C18 0.895076 17.105 7.62939e-05 16 7.62939e-05ZM16 12.0001H12C12 13.6571 10.657 15.0001 8.99999 15.0001C7.34299 15.0001 5.99999 13.6571 5.99999 12.0001H1.98999V2.00008H16V12.0001ZM13 7.00008H11V4.00008H7V7.00008H5L9 11.0001L13 7.00008Z" fill="#87CDF6"/>
</svg>
