<svg width="139" height="136" viewBox="0 0 139 136" fill="none" xmlns="http://www.w3.org/2000/svg">
<path d="M17.884 135.216C17.716 135.216 17.44 135.204 17.056 135.18C16.672 135.156 16.276 135.132 15.868 135.108C15.46 135.084 15.064 135.06 14.68 135.036C14.296 135.012 14.02 135 13.852 135H11.728C11.56 135 11.284 135.012 10.9 135.036C10.516 135.06 10.108 135.084 9.676 135.108C9.268 135.132 8.872 135.156 8.488 135.18C8.104 135.204 7.828 135.216 7.66 135.216L7.624 135.072L7.696 133.704L7.876 133.56C8.236 133.56 8.584 133.548 8.92 133.524C9.28 133.476 9.568 133.368 9.784 133.2C10 133.032 10.192 132.816 10.36 132.552C10.528 132.288 10.636 131.82 10.684 131.148C10.708 130.98 10.72 130.788 10.72 130.572C10.744 130.332 10.756 130.044 10.756 129.708C10.78 129.372 10.792 128.964 10.792 128.484C10.792 128.004 10.792 127.404 10.792 126.684V126C10.792 125.328 10.696 124.788 10.504 124.38C10.312 123.948 10.12 123.564 9.928 123.228C9.136 121.932 8.26 120.588 7.3 119.196C6.364 117.804 5.392 116.388 4.384 114.948C4.216 114.684 4.024 114.432 3.808 114.192C3.592 113.928 3.4 113.724 3.232 113.58C2.968 113.364 2.644 113.208 2.26 113.112C1.9 113.016 1.48 112.944 1 112.896L0.712 112.752V111.384L0.892 111.24C1.492 111.312 2.032 111.384 2.512 111.456C2.992 111.504 3.52 111.528 4.096 111.528H7.048C7.6 111.528 8.236 111.504 8.956 111.456C9.7 111.384 10.408 111.312 11.08 111.24L11.224 111.384V112.752L11.08 112.896C10.6 112.92 10.18 112.968 9.82 113.04C9.46 113.088 9.172 113.184 8.956 113.328C8.716 113.496 8.596 113.712 8.596 113.976C8.596 114.12 8.62 114.264 8.668 114.408C8.74 114.552 8.812 114.684 8.884 114.804L13.168 121.608L17.2 115.38C17.44 114.972 17.56 114.552 17.56 114.12C17.56 113.832 17.476 113.616 17.308 113.472C17.14 113.328 16.924 113.22 16.66 113.148C16.42 113.076 16.144 113.028 15.832 113.004C15.544 112.98 15.268 112.932 15.004 112.86L14.86 112.716V111.348L15.004 111.204C15.7 111.324 16.276 111.396 16.732 111.42C17.188 111.42 17.716 111.42 18.316 111.42H21.484C22.06 111.42 22.588 111.408 23.068 111.384C23.548 111.36 24.124 111.3 24.796 111.204L24.94 111.348V112.716L24.796 112.86C24.244 112.932 23.776 113.028 23.392 113.148C23.008 113.268 22.66 113.436 22.348 113.652C22.036 113.868 21.724 114.144 21.412 114.48C21.124 114.816 20.8 115.236 20.44 115.74C19.72 116.796 19.096 117.708 18.568 118.476C18.064 119.22 17.62 119.892 17.236 120.492C16.876 121.068 16.54 121.608 16.228 122.112C15.916 122.616 15.592 123.144 15.256 123.696C15.16 123.84 15.052 124.092 14.932 124.452C14.812 124.788 14.752 125.136 14.752 125.496V126.036C14.752 126.9 14.752 127.596 14.752 128.124C14.752 128.652 14.752 129.096 14.752 129.456C14.776 129.816 14.788 130.116 14.788 130.356C14.812 130.596 14.836 130.86 14.86 131.148C14.908 131.82 15.016 132.288 15.184 132.552C15.376 132.816 15.568 133.032 15.76 133.2C15.952 133.368 16.216 133.476 16.552 133.524C16.912 133.548 17.284 133.56 17.668 133.56L17.848 133.704L17.956 135.072L17.884 135.216ZM31.7308 117.9C33.1468 117.9 34.4068 118.152 35.5108 118.656C36.6148 119.136 37.5388 119.796 38.2828 120.636C39.0508 121.452 39.6268 122.4 40.0108 123.48C40.4188 124.56 40.6228 125.676 40.6228 126.828C40.6228 127.932 40.4428 129 40.0828 130.032C39.7228 131.064 39.1708 131.976 38.4268 132.768C37.6828 133.56 36.7588 134.196 35.6548 134.676C34.5508 135.156 33.2668 135.396 31.8028 135.396C30.2908 135.396 28.9708 135.144 27.8428 134.64C26.7148 134.136 25.7788 133.476 25.0348 132.66C24.3148 131.844 23.7748 130.92 23.4148 129.888C23.0548 128.832 22.8748 127.752 22.8748 126.648C22.8748 125.472 23.0788 124.356 23.4868 123.3C23.8948 122.244 24.4708 121.32 25.2148 120.528C25.9828 119.712 26.9068 119.076 27.9868 118.62C29.0908 118.14 30.3388 117.9 31.7308 117.9ZM31.7668 132.912C32.5108 132.912 33.1588 132.744 33.7108 132.408C34.2868 132.048 34.7668 131.592 35.1508 131.04C35.5348 130.464 35.8108 129.816 35.9788 129.096C36.1708 128.352 36.2668 127.596 36.2668 126.828C36.2668 126.084 36.1588 125.34 35.9428 124.596C35.7508 123.828 35.4508 123.144 35.0428 122.544C34.6588 121.944 34.1788 121.452 33.6028 121.068C33.0268 120.684 32.3668 120.492 31.6228 120.492C30.8548 120.492 30.1828 120.672 29.6068 121.032C29.0548 121.392 28.5988 121.86 28.2388 122.436C27.8788 123.012 27.6028 123.66 27.4108 124.38C27.2428 125.1 27.1588 125.832 27.1588 126.576C27.1588 127.344 27.2548 128.1 27.4468 128.844C27.6628 129.588 27.9628 130.272 28.3468 130.896C28.7548 131.496 29.2468 131.988 29.8228 132.372C30.3988 132.732 31.0468 132.912 31.7668 132.912ZM57.528 131.904C56.88 132.936 56.076 133.776 55.116 134.424C54.156 135.072 52.944 135.396 51.48 135.396C50.808 135.396 50.148 135.312 49.5 135.144C48.876 134.976 48.3 134.712 47.772 134.352C47.268 133.992 46.824 133.524 46.44 132.948C46.056 132.348 45.78 131.628 45.612 130.788C45.564 130.572 45.516 130.332 45.468 130.068C45.444 129.804 45.42 129.468 45.396 129.06C45.396 128.628 45.384 128.112 45.36 127.512C45.36 126.888 45.36 126.12 45.36 125.208V121.968C45.36 121.704 45.3 121.44 45.18 121.176C45.06 120.912 44.964 120.744 44.892 120.672C44.652 120.384 44.352 120.216 43.992 120.168C43.632 120.12 43.26 120.096 42.876 120.096L42.768 119.952V118.728L42.876 118.62H44.64C45.192 118.62 45.78 118.62 46.404 118.62C47.028 118.596 47.58 118.548 48.06 118.476L49.32 118.296L49.536 118.98C49.488 119.076 49.452 119.256 49.428 119.52C49.404 119.76 49.38 120.024 49.356 120.312C49.332 120.6 49.32 120.876 49.32 121.14C49.32 121.404 49.32 121.608 49.32 121.752C49.32 122.064 49.308 122.448 49.284 122.904C49.284 123.336 49.272 123.792 49.248 124.272C49.248 124.728 49.236 125.172 49.212 125.604C49.212 126.036 49.212 126.396 49.212 126.684C49.212 127.308 49.236 127.944 49.284 128.592C49.332 129.216 49.428 129.792 49.572 130.32C49.812 131.16 50.172 131.784 50.652 132.192C51.156 132.576 51.852 132.768 52.74 132.768C53.46 132.768 54.096 132.648 54.648 132.408C55.224 132.168 55.716 131.88 56.124 131.544C56.532 131.208 56.868 130.848 57.132 130.464C57.396 130.056 57.564 129.696 57.636 129.384V125.784C57.636 124.68 57.612 123.828 57.564 123.228C57.54 122.628 57.504 122.16 57.456 121.824C57.408 121.512 57.336 121.26 57.24 121.068C57.168 120.876 57.096 120.744 57.024 120.672C56.76 120.384 56.424 120.216 56.016 120.168C55.608 120.12 55.284 120.096 55.044 120.096L54.9 119.952V118.728L55.044 118.62H55.692C55.932 118.62 56.244 118.62 56.628 118.62C57.036 118.62 57.456 118.62 57.888 118.62C58.32 118.596 58.74 118.584 59.148 118.584C59.556 118.56 59.904 118.524 60.192 118.476L61.452 118.296L61.668 118.98C61.548 119.676 61.464 120.588 61.416 121.716C61.392 122.316 61.368 122.808 61.344 123.192C61.344 123.552 61.344 123.852 61.344 124.092C61.344 124.332 61.344 124.524 61.344 124.668C61.344 124.788 61.344 124.908 61.344 125.028V127.98C61.344 129.3 61.38 130.464 61.452 131.472C61.5 131.928 61.56 132.3 61.632 132.588C61.704 132.852 61.836 133.068 62.028 133.236C62.244 133.428 62.496 133.548 62.784 133.596C63.072 133.62 63.42 133.632 63.828 133.632L63.972 133.776L64.044 135L63.972 135.108C63.516 135.06 63.072 135.024 62.64 135C62.208 135 61.704 135 61.128 135C60.552 135 59.94 135 59.292 135C58.644 135.024 58.02 135.06 57.42 135.108L57.204 134.388C57.276 134.124 57.348 133.776 57.42 133.344C57.516 132.888 57.588 132.432 57.636 131.976L57.528 131.904ZM76.9 135.216C76.732 135.216 76.456 135.204 76.072 135.18C75.688 135.156 75.292 135.132 74.884 135.108C74.476 135.084 74.08 135.06 73.696 135.036C73.312 135.012 73.036 135 72.868 135H70.744C70.576 135 70.3 135.012 69.916 135.036C69.532 135.06 69.136 135.084 68.728 135.108C68.32 135.132 67.924 135.156 67.54 135.18C67.156 135.204 66.88 135.216 66.712 135.216L66.64 135.072L66.748 133.704L66.928 133.56C67.216 133.56 67.552 133.548 67.936 133.524C68.32 133.476 68.62 133.38 68.836 133.236C69.028 133.092 69.208 132.864 69.376 132.552C69.544 132.24 69.664 131.772 69.736 131.148C69.736 130.98 69.736 130.788 69.736 130.572C69.76 130.332 69.772 130.044 69.772 129.708C69.796 129.372 69.808 128.964 69.808 128.484C69.808 128.004 69.808 127.404 69.808 126.684V118.764C69.808 118.284 69.808 117.744 69.808 117.144C69.808 116.52 69.784 115.908 69.736 115.308C69.688 114.684 69.568 114.228 69.376 113.94C69.208 113.628 69.028 113.4 68.836 113.256C68.62 113.064 68.392 112.956 68.152 112.932C67.936 112.908 67.528 112.896 66.928 112.896L66.748 112.752L66.64 111.384L66.712 111.24C66.88 111.24 67.096 111.252 67.36 111.276C67.648 111.3 67.936 111.324 68.224 111.348C68.536 111.372 68.848 111.396 69.16 111.42C69.472 111.444 69.76 111.456 70.024 111.456H72.76C73.024 111.456 73.324 111.456 73.66 111.456C73.996 111.432 74.332 111.42 74.668 111.42C75.028 111.42 75.352 111.42 75.64 111.42C75.928 111.396 76.168 111.384 76.36 111.384C77.968 111.384 79.324 111.552 80.428 111.888C81.556 112.2 82.468 112.644 83.164 113.22C83.86 113.796 84.364 114.492 84.676 115.308C85.012 116.1 85.18 116.976 85.18 117.936C85.18 119.544 84.892 120.864 84.316 121.896C83.74 122.928 82.996 123.744 82.084 124.344C81.196 124.944 80.188 125.364 79.06 125.604C77.956 125.82 76.876 125.928 75.82 125.928H73.804C73.804 126.408 73.804 126.912 73.804 127.44C73.804 127.968 73.804 128.484 73.804 128.988C73.828 129.468 73.84 129.9 73.84 130.284C73.864 130.668 73.888 130.956 73.912 131.148C73.96 131.844 74.08 132.336 74.272 132.624C74.464 132.888 74.632 133.08 74.776 133.2C74.992 133.392 75.208 133.5 75.424 133.524C75.664 133.548 76.096 133.56 76.72 133.56L76.864 133.704L76.972 135.072L76.9 135.216ZM75.64 123.264C77.656 123.264 79.096 122.808 79.96 121.896C80.824 120.984 81.256 119.724 81.256 118.116C81.256 116.82 80.752 115.86 79.744 115.236C78.76 114.588 77.404 114.264 75.676 114.264H73.984C73.912 115.32 73.864 116.112 73.84 116.64C73.816 117.144 73.804 117.6 73.804 118.008V121.932C73.804 122.244 73.816 122.496 73.84 122.688C73.864 122.856 73.924 122.988 74.02 123.084C74.116 123.156 74.248 123.204 74.416 123.228C74.608 123.252 74.86 123.264 75.172 123.264H75.64ZM97.2578 134.748C97.3298 134.532 97.3778 134.22 97.4018 133.812C97.4498 133.404 97.5098 133.032 97.5818 132.696L97.5458 132.588C97.2578 132.948 96.9218 133.296 96.5378 133.632C96.1778 133.968 95.7698 134.268 95.3138 134.532C94.8578 134.796 94.3658 135 93.8378 135.144C93.3338 135.312 92.7938 135.396 92.2178 135.396C91.3538 135.396 90.5978 135.264 89.9498 135C89.3018 134.736 88.7618 134.388 88.3298 133.956C87.8978 133.524 87.5618 133.02 87.3218 132.444C87.1058 131.868 86.9978 131.268 86.9978 130.644C86.9978 129.708 87.2018 128.892 87.6098 128.196C88.0178 127.5 88.5578 126.936 89.2298 126.504C89.8538 126.096 90.5858 125.784 91.4258 125.568C92.2658 125.328 93.0818 125.148 93.8738 125.028C94.6658 124.908 95.3858 124.836 96.0338 124.812C96.6818 124.764 97.1138 124.74 97.3298 124.74H97.8338C97.8098 123.996 97.7618 123.42 97.6898 123.012C97.6178 122.58 97.5218 122.22 97.4018 121.932C97.1858 121.452 96.8258 121.116 96.3218 120.924C95.8418 120.708 95.2658 120.6 94.5938 120.6C94.1858 120.6 93.7418 120.636 93.2618 120.708C92.8058 120.756 92.3738 120.864 91.9658 121.032C91.5578 121.2 91.1978 121.44 90.8858 121.752C90.5978 122.04 90.4298 122.424 90.3818 122.904L90.2378 123.012H89.0858L88.7618 119.628L88.8698 119.412C89.0138 119.268 89.2898 119.112 89.6978 118.944C90.1058 118.776 90.5978 118.62 91.1738 118.476C91.7498 118.308 92.3738 118.176 93.0458 118.08C93.7418 117.96 94.4378 117.9 95.1338 117.9C96.0698 117.9 96.9458 118.02 97.7618 118.26C98.5778 118.476 99.2738 118.812 99.8498 119.268C100.45 119.724 100.918 120.3 101.254 120.996C101.59 121.668 101.758 122.46 101.758 123.372C101.758 124.356 101.746 125.196 101.722 125.892C101.722 126.588 101.71 127.236 101.686 127.836C101.662 128.436 101.638 129.024 101.614 129.6C101.614 130.152 101.614 130.776 101.614 131.472C101.662 132.024 101.722 132.42 101.794 132.66C101.866 132.9 101.986 133.092 102.154 133.236C102.346 133.428 102.634 133.548 103.018 133.596C103.426 133.62 103.798 133.632 104.134 133.632L104.242 133.776L104.314 135L104.278 135.144C103.87 135.096 103.402 135.06 102.874 135.036C102.346 135.012 101.854 135 101.398 135C100.726 135 100.054 135 99.3818 135C98.7098 135.024 98.0738 135.06 97.4738 135.108L97.2578 134.748ZM97.2578 130.86C97.3298 130.74 97.4018 130.596 97.4738 130.428C97.5698 130.26 97.6298 130.056 97.6538 129.816L97.8338 126.756H97.5098C96.7658 126.756 96.0338 126.804 95.3138 126.9C94.5938 126.996 93.9458 127.176 93.3698 127.44C92.7938 127.704 92.3258 128.076 91.9658 128.556C91.6058 129.036 91.4258 129.66 91.4258 130.428C91.4258 131.076 91.5818 131.592 91.8938 131.976C92.2298 132.36 92.6738 132.552 93.2258 132.552C93.6338 132.552 94.0418 132.504 94.4498 132.408C94.8818 132.288 95.2778 132.144 95.6378 131.976C95.9978 131.808 96.3218 131.628 96.6098 131.436C96.8978 131.22 97.1138 131.028 97.2578 130.86ZM115.391 135.144C115.223 135.144 114.971 135.132 114.635 135.108C114.299 135.084 113.939 135.06 113.555 135.036C113.171 135.036 112.811 135.024 112.475 135C112.139 135 111.887 135 111.719 135H109.775C109.607 135 109.343 135 108.983 135C108.647 135.024 108.287 135.036 107.903 135.036C107.543 135.06 107.183 135.084 106.823 135.108C106.487 135.132 106.235 135.144 106.067 135.144L106.031 135L106.103 133.776L106.211 133.632C106.571 133.632 106.943 133.62 107.327 133.596C107.711 133.548 107.999 133.428 108.191 133.236C108.359 133.068 108.479 132.852 108.551 132.588C108.623 132.324 108.683 131.952 108.731 131.472C108.755 131.304 108.767 131.136 108.767 130.968C108.791 130.8 108.803 130.62 108.803 130.428C108.827 130.236 108.839 130.008 108.839 129.744C108.839 129.48 108.839 129.156 108.839 128.772V124.704C108.839 124.248 108.839 123.888 108.839 123.624C108.839 123.336 108.827 123.096 108.803 122.904C108.803 122.712 108.791 122.544 108.767 122.4C108.767 122.232 108.755 122.04 108.731 121.824C108.683 121.584 108.611 121.356 108.515 121.14C108.419 120.924 108.335 120.78 108.263 120.708C108.023 120.396 107.723 120.216 107.363 120.168C107.003 120.12 106.631 120.096 106.247 120.096L106.103 119.952V118.728L106.247 118.62H108.083C108.635 118.62 109.223 118.62 109.847 118.62C110.471 118.596 111.023 118.548 111.503 118.476L112.763 118.296L112.979 118.98C112.931 119.076 112.883 119.232 112.835 119.448C112.811 119.64 112.787 119.856 112.763 120.096C112.763 120.312 112.751 120.54 112.727 120.78C112.727 120.996 112.727 121.176 112.727 121.32C112.727 121.512 112.715 121.692 112.691 121.86C112.691 122.004 112.691 122.184 112.691 122.4C112.691 122.592 112.679 122.844 112.655 123.156C112.655 123.468 112.655 123.852 112.655 124.308V128.34C112.655 128.82 112.655 129.216 112.655 129.528C112.679 129.816 112.691 130.068 112.691 130.284C112.715 130.5 112.727 130.704 112.727 130.896C112.751 131.064 112.775 131.256 112.799 131.472C112.847 131.976 112.895 132.36 112.943 132.624C113.015 132.864 113.147 133.068 113.339 133.236C113.531 133.428 113.795 133.548 114.131 133.596C114.491 133.62 114.851 133.632 115.211 133.632L115.391 133.812L115.463 135L115.391 135.144ZM108.083 112.932C108.083 112.644 108.143 112.356 108.263 112.068C108.383 111.78 108.551 111.528 108.767 111.312C108.983 111.072 109.223 110.892 109.487 110.772C109.775 110.628 110.075 110.556 110.387 110.556C110.987 110.556 111.527 110.808 112.007 111.312C112.511 111.792 112.763 112.332 112.763 112.932C112.763 113.244 112.691 113.544 112.547 113.832C112.427 114.096 112.247 114.336 112.007 114.552C111.791 114.768 111.539 114.936 111.251 115.056C110.963 115.176 110.675 115.236 110.387 115.236C109.763 115.236 109.223 115.008 108.767 114.552C108.311 114.096 108.083 113.556 108.083 112.932ZM131.295 134.388C131.295 134.22 131.331 133.908 131.403 133.452C131.499 132.972 131.571 132.552 131.619 132.192L131.583 132.048C130.959 133.152 130.095 133.992 128.991 134.568C127.887 135.12 126.735 135.396 125.535 135.396C124.215 135.396 123.063 135.156 122.079 134.676C121.119 134.196 120.315 133.56 119.667 132.768C119.019 131.976 118.539 131.064 118.227 130.032C117.915 129 117.759 127.932 117.759 126.828C117.759 125.22 118.011 123.852 118.515 122.724C119.043 121.572 119.703 120.648 120.495 119.952C121.287 119.232 122.151 118.716 123.087 118.404C124.047 118.068 124.971 117.9 125.859 117.9C126.939 117.9 128.007 118.152 129.063 118.656C130.119 119.16 130.983 119.988 131.655 121.14L131.727 120.996C131.679 120.3 131.655 119.592 131.655 118.872C131.655 118.128 131.655 117.408 131.655 116.712C131.655 115.968 131.655 115.356 131.655 114.876C131.655 114.372 131.643 113.952 131.619 113.616C131.619 113.28 131.607 112.98 131.583 112.716C131.583 112.452 131.571 112.176 131.547 111.888C131.523 111.648 131.439 111.42 131.295 111.204C131.151 110.988 131.043 110.844 130.971 110.772C130.635 110.508 130.299 110.34 129.963 110.268C129.651 110.196 129.279 110.16 128.847 110.16L128.703 110.016V108.828L128.847 108.684H130.899C131.451 108.684 132.027 108.684 132.627 108.684C133.251 108.66 133.803 108.612 134.283 108.54L135.543 108.36L135.759 109.044C135.711 109.14 135.663 109.32 135.615 109.584C135.591 109.824 135.567 110.088 135.543 110.376C135.543 110.664 135.531 110.94 135.507 111.204C135.507 111.468 135.507 111.672 135.507 111.816C135.507 112.176 135.495 112.524 135.471 112.86C135.471 113.172 135.471 113.544 135.471 113.976C135.471 114.384 135.459 114.9 135.435 115.524C135.435 116.124 135.435 116.904 135.435 117.864V125.712C135.435 126.72 135.435 127.536 135.435 128.16C135.459 128.76 135.471 129.264 135.471 129.672C135.495 130.08 135.507 130.44 135.507 130.752C135.531 131.04 135.555 131.4 135.579 131.832C135.627 132.264 135.687 132.576 135.759 132.768C135.855 132.96 135.987 133.116 136.155 133.236C136.347 133.428 136.611 133.548 136.947 133.596C137.283 133.62 137.595 133.632 137.883 133.632L138.027 133.776L138.099 135L138.027 135.144C137.619 135.096 137.175 135.06 136.695 135.036C136.215 135.012 135.759 135 135.327 135C134.679 135 134.031 135 133.383 135C132.735 135.024 132.123 135.06 131.547 135.108L131.295 134.388ZM121.935 126.792C121.935 127.512 122.019 128.22 122.187 128.916C122.379 129.588 122.655 130.2 123.015 130.752C123.375 131.28 123.831 131.712 124.383 132.048C124.959 132.36 125.631 132.516 126.399 132.516C127.215 132.516 127.935 132.384 128.559 132.12C129.207 131.832 129.747 131.496 130.179 131.112C130.635 130.704 130.983 130.284 131.223 129.852C131.487 129.42 131.631 129.048 131.655 128.736V124.74C131.607 124.428 131.463 124.056 131.223 123.624C131.007 123.168 130.683 122.736 130.251 122.328C129.843 121.92 129.327 121.572 128.703 121.284C128.079 120.972 127.335 120.816 126.471 120.816C125.679 120.816 124.995 120.996 124.419 121.356C123.843 121.692 123.363 122.136 122.979 122.688C122.619 123.24 122.355 123.876 122.187 124.596C122.019 125.316 121.935 126.048 121.935 126.792Z" fill="white"/>
<path d="M70 0C42.4 0 20 22.4 20 50C20 77.6 42.4 100 70 100C97.6 100 120 77.6 120 50C120 22.4 97.6 0 70 0ZM74.4 78.8V80.6C74.4 83 72.45 85 70 85C67.6 85 65.6 83.05 65.6 80.6V78.5C62.45 77.75 55.95 75.45 52.15 68C51 65.8 52.1 63.05 54.4 62.1L54.75 61.95C56.8 61.1 59.1 61.95 60.15 63.9C61.75 66.95 64.9 70.75 70.75 70.75C75.4 70.75 80.65 68.35 80.65 62.7C80.65 57.9 77.15 55.4 69.25 52.55C63.75 50.6 52.5 47.4 52.5 36C52.5 35.5 52.55 24 65.6 21.2V19.4C65.6 16.95 67.6 15 70 15C72.4 15 74.4 16.95 74.4 19.4V21.25C79.75 22.2 83.15 25.05 85.2 27.75C86.9 29.95 86 33.15 83.4 34.25C81.6 35 79.5 34.4 78.3 32.85C76.9 30.95 74.4 29 70.3 29C66.8 29 61.25 30.85 61.25 35.95C61.25 40.7 65.55 42.5 74.45 45.45C86.45 49.6 89.5 55.7 89.5 62.7C89.5 75.85 77 78.35 74.4 78.8Z" fill="#ABF1BC"/>
</svg>
