<svg width="115" height="69" viewBox="0 0 115 69" fill="none" xmlns="http://www.w3.org/2000/svg">
<path d="M100.625 0C93.0925 0 86.9975 5.8075 86.365 13.225C75.555 10.35 70.035 2.875 57.5 2.875C44.9075 2.875 39.445 10.35 28.635 13.225C28.0025 5.865 21.9075 0 14.375 0C6.44 0 0 6.44 0 14.375V17.25C0 51.75 20.7 62.1575 37.49 63.135C43.2975 66.815 50.14 69 57.5 69C64.86 69 71.7025 66.815 77.51 63.135C94.3 62.1575 115 51.75 115 17.25V14.375C115 6.44 108.56 0 100.625 0ZM8.625 17.25V14.375C8.625 11.2125 11.2125 8.625 14.375 8.625C17.5375 8.625 20.125 11.2125 20.125 14.375V31.625C20.125 38.985 22.31 45.8275 25.9325 51.635C17.1925 47.5525 8.625 38.2375 8.625 17.25ZM28.75 31.625V22.1375C35.19 20.815 39.9625 18.17 44.045 15.9275C48.76 13.3975 52.1525 11.5 57.5 11.5C62.8475 11.5 66.24 13.3975 70.955 15.985C75.0375 18.2275 79.81 20.815 86.25 22.195V31.6825C86.25 47.5525 73.37 60.4325 57.5 60.4325C41.63 60.4325 28.75 47.495 28.75 31.625ZM106.375 17.25C106.375 38.2375 97.8075 47.5525 89.0675 51.635C92.7475 45.8275 94.875 38.985 94.875 31.625V14.375C94.875 11.2125 97.4625 8.625 100.625 8.625C103.788 8.625 106.375 11.2125 106.375 14.375V17.25ZM49.9675 25.76C47.4375 27.255 44.4475 28.98 40.25 30.13V24.15C43.01 23.1725 45.08 21.965 47.035 20.815C50.14 18.975 53.0725 17.25 57.5 17.25C61.9275 17.25 64.8025 18.975 67.85 20.815C69.805 21.965 71.9325 23.23 74.75 24.2075V30.1875C70.4375 28.98 67.505 27.255 64.9175 25.7025C62.2725 24.15 60.3175 23 57.5 23C54.6825 23 52.67 24.15 49.9675 25.76Z" fill="white"/>
</svg>
