<svg width="28" height="25" viewBox="0 0 28 25" fill="none" xmlns="http://www.w3.org/2000/svg">
<path d="M27.125 5.25H8.75V6.125C8.75 6.60625 8.35625 7 7.875 7H6.125C5.64375 7 5.25 6.60625 5.25 6.125V5.25H0.875C0.39375 5.25 0 4.85625 0 4.375V2.625C0 2.14375 0.39375 1.75 0.875 1.75H5.25V0.875C5.25 0.393749 5.64375 0 6.125 0H7.875C8.35625 0 8.75 0.393749 8.75 0.875V1.75H27.125C27.6063 1.75 28 2.14375 28 2.625V4.375C28 4.85625 27.6063 5.25 27.125 5.25ZM27.125 14H22.75V14.875C22.75 15.3562 22.3563 15.75 21.875 15.75H20.125C19.6437 15.75 19.25 15.3562 19.25 14.875V14H0.875C0.39375 14 0 13.6062 0 13.125V11.375C0 10.8938 0.39375 10.5 0.875 10.5H19.25V9.625C19.25 9.14375 19.6437 8.75 20.125 8.75H21.875C22.3563 8.75 22.75 9.14375 22.75 9.625V10.5H27.125C27.6063 10.5 28 10.8938 28 11.375V13.125C28 13.6062 27.6063 14 27.125 14ZM27.125 22.75H15.75V23.625C15.75 24.1063 15.3562 24.5 14.875 24.5H13.125C12.6438 24.5 12.25 24.1063 12.25 23.625V22.75H0.875C0.39375 22.75 0 22.3563 0 21.875V20.125C0 19.6438 0.39375 19.25 0.875 19.25H12.25V18.375C12.25 17.8938 12.6438 17.5 13.125 17.5H14.875C15.3562 17.5 15.75 17.8938 15.75 18.375V19.25H27.125C27.6063 19.25 28 19.6438 28 20.125V21.875C28 22.3563 27.6063 22.75 27.125 22.75Z" fill="black"/>
</svg>
