<svg width="29" height="33" viewBox="0 0 29 33" fill="none" xmlns="http://www.w3.org/2000/svg">
<path d="M27.8336 23.5317C26.6301 22.2188 24.3783 20.2437 24.3783 13.7738C24.3783 8.85975 20.9847 4.92597 16.4087 3.96086V2.64286C16.4087 1.52534 15.5167 0.619049 14.4167 0.619049C13.3166 0.619049 12.4246 1.52534 12.4246 2.64286V3.96086C7.84867 4.92597 4.45505 8.85975 4.45505 13.7738C4.45505 20.2437 2.20322 22.2188 0.99975 23.5317C0.626002 23.9397 0.460307 24.4273 0.463422 24.9048C0.470274 25.942 1.27196 26.9286 2.46297 26.9286H26.3704C27.5614 26.9286 28.3637 25.942 28.3699 24.9048C28.373 24.4273 28.2073 23.939 27.8336 23.5317ZM4.66995 23.8929C5.99177 22.1239 7.43693 19.1919 7.44378 13.8105C7.44378 13.7978 7.44004 13.7865 7.44004 13.7738C7.44004 9.86153 10.5633 6.69048 14.4167 6.69048C18.27 6.69048 21.3933 9.86153 21.3933 13.7738C21.3933 13.7865 21.3896 13.7978 21.3896 13.8105C21.3964 19.1926 22.8416 22.1246 24.1634 23.8929H4.66995ZM14.4167 33C16.6168 33 18.4014 31.1881 18.4014 28.9524H10.4319C10.4319 31.1881 12.2165 33 14.4167 33Z" fill="black"/>
</svg>
